<svg version="1" xmlns="http://www.w3.org/2000/svg" width="346.667" height="346.667" viewBox="0 0 260.000000 260.000000"><path d="M129.3 29.8c-.6.4-3.4.7-6.2.6-2.8-.1-5.1.2-5.1.7 0 .5-.3.8-.7.7-1.3-.4-12.3 3.4-12.3 4.2 0 .7-4.4 2.3-4.5 1.7-.1-.1-1.9 1.6-4.1 3.9-2.1 2.2-4.8 4.3-5.8 4.7-1 .4-2 1.6-2.3 2.7-.3 1.1-1.2 2-1.9 2-.8 0-1.4.5-1.4 1.1 0 .6-.6 1.7-1.2 2.4-3.1 3.4-3.6 4.3-3.1 4.9.4.3.2.6-.3.6s-1 1-1.1 2.2c-.1 1.1-.7 2.4-1.3 2.8-.6.4-1.2 1.3-1.3 2.1-.2.8-.6 2-1 2.6-.5.7-.6 1.3-.2 1.3.3 0-.1 1.5-.8 3.2-1.7 4.3-1.6 30 .1 30.6.7.2.9.8.6 1.3-.3.6 0 1.7.7 2.5.6.8.9 1.7.6 2.1-.4.3.3 1.9 1.4 3.4 1.1 1.6 1.8 2.9 1.4 2.9-.8 0 5.2 8.7 8.2 12 1.3 1.4 2.3 2.8 2.3 3.2 0 .5.5.8 1 .8.6 0 2.3 1.1 3.8 2.4 6.4 5.7 19.9 12.5 21.6 10.9.3-.4.6 0 .6.7s.3 1 .6.7c.4-.3 1.5-.2 2.6.4 1 .6 5.6 1.2 10.1 1.4 4.5.1 9.6.9 11.2 1.6 1.7.7 3.2 1.3 3.5 1.3.3.1 2.7 2.1 5.2 4.6 4.6 4.6 7.8 10.4 7.8 14.3v3.7c.2 3-.9 8-2.4 10.7-3.2 5.9-11.1 12.9-15.9 13.9-1.2.3-16.4.5-33.7.6-17.3 0-32 .3-32.6.5-1.1.4-1.2 8.8-.1 9.9.3.4 14.7.7 31.9.7 32.1 0 35-.3 44-4.3 4.3-1.9 14.8-11.8 14.8-14 0-.6.8-2.2 1.7-3.7 2.3-3.5 2.5-4.5 2.9-13.6.2-5.3-.2-8.6-1.2-10.5-.7-1.5-1.4-3.5-1.4-4.5 0-.9-.4-1.7-1-1.7-.5 0-.9-.3-.8-.8.5-1.4-4.4-8.2-5.8-8.2-.9 0-1.3-.4-1-.8.7-1.1-2-3.3-7.4-5.9-7.7-3.7-9.5-4.1-19.5-4.8-7.9-.6-10.8-1.1-13.1-2.2-1-.6-4.1-2.1-6.9-3.4-6-2.9-6.4-3.2-12.3-9.1-5.8-5.8-7.2-7.5-7.2-8.7 0-.5-.7-1.2-1.6-1.5-.8-.3-1.2-1-.9-1.6.3-.5.1-1-.6-1s-.9-.3-.6-.6c.3-.4.1-1.6-.5-2.8-1.4-2.4-1.8-4-2.1-7.6-.1-1.4-.5-3-.8-3.5-.5-1.1-.2-14.8.4-18 .5-2.3 1.4-4.9 3-8.5.6-1.4 1.1-2.8 1.1-3.1.2-1.2 5.1-7.4 9.2-11.7 2.3-2.3 3.9-4.2 3.5-4.2-1.5-.1 11.5-7.3 13.4-7.5.6 0 2-.6 3.3-1.3 1.2-.7 2.2-1 2.2-.6 0 .3.6.2 1.3-.3.7-.6 14.2-1 34.7-.9 18.4.1 34.2-.2 35.1-.6 1.1-.5 1.6-2 1.5-5.5l-.1-4.8-31-.2c-17.1-.1-31.5.1-32.2.5z"/><path d="M125.5 53.7c-4 .9-12.5 4.6-12.5 5.4 0 .5-.5.9-1.2.9s-3.2 2.1-5.5 4.6c-3.9 4-6.2 8-8.8 14.9-1.2 3.1-1.5 16.7-.4 18.8.6 1 1.2 2.8 1.5 4 .2 1.2.8 2.3 1.4 2.5.6.2.8.8.4 1.3-.3.5 0 .9.6.9s.9.4.6.8c-.8 1.4 8.8 10.9 13.4 13.2 5.6 2.8 10.3 3.9 19.8 4.3 1.2.1 2.2.4 2.2.8 0 .3 1 .6 2.3.5 1.2-.1 3.6.2 5.2.7 1.7.4 3.7 1 4.5 1.2.8.2 1.6.4 1.8.5.1.2.5.3 1 .4.4 0 2.5 1.2 4.7 2.6 2.2 1.4 4.5 2.7 5 2.9 2.3.9 12.5 12.4 13.1 14.7.3 1.3 1 2.4 1.4 2.4 1.1 0 3.6 7 4.7 13.5.6 3.3.6 15.8 0 19-1.2 6.9-2 9.5-2.8 9.5-.5 0-.8.3-.7.7.4 1.3-3.2 7.3-4.3 7.3-.6 0-.8.4-.5.8 1.6 2.6-18.3 18.2-23.2 18.2-1.1 0-2.2.4-2.4.9-.6 1.9-9.7 2.5-41.2 2.8-17.6.1-32.1.5-32.4.8-.3.3-.6 2.3-.7 4.5-.2 3.4.2 4.1 1.9 4.6 2.7.6 60.2 0 68.4-.8 3.5-.4 7-1.2 7.8-1.9.8-.6 2.2-1.2 3.2-1.3 2.4-.2 11.2-4.8 11.2-5.8 0-.5.4-.7.8-.4 1 .6 12.3-9 11.5-9.8-.4-.3-.1-.6.5-.6s1.4-.9 1.7-2c.4-1.1 1-1.8 1.4-1.6.4.3 1.6-1.4 2.6-3.7 1-2.3 2.6-5.3 3.5-6.7 1-1.4 1.6-3.3 1.5-4.3-.2-.9 0-1.7.4-1.7 3 0 3.9-31.9 1.1-37-.8-1.4-1.3-2.9-1.2-3.3.1-.5-.8-2.5-2-4.5-1.3-2.1-2.3-3.9-2.3-4.2-.1-1.4-3.1-5.7-5.2-7.5-1.2-1.1-2.3-2.5-2.3-3 0-.6-1.2-1.9-2.7-3-1.5-1.1-4.1-3.3-5.7-5-1.7-1.6-3.5-2.9-3.9-2.7-.4.1-2.9-1-5.5-2.4-2.5-1.4-5.8-2.8-7.2-3.1-1.3-.2-2.7-.7-3-1.1-.3-.4-1.4-.8-2.5-.9-2.8-.4-16.7-1.5-18.5-1.5-.8-.1-2.1-.5-2.7-1.1-.7-.5-1.3-.6-1.3-.2 0 .5-.9 0-2-1s-2-1.5-2-1c0 .4-2.4-1.8-5.4-4.9-6-6.4-7.9-11.2-7.2-19.1.4-5.9 2.3-11.5 3.9-11.5.6 0 .7-.3.4-.7-.4-.3.5-1.5 2-2.5 1.6-1 2.4-1.8 1.9-1.8-.6 0 .6-1.1 2.4-2.5 6.8-5 10.8-5.5 44-5.5h30.6v-4.8l-.1-4.7-32.5-.1c-17.9-.1-33.4 0-34.5.3z"/></svg>